<svg viewBox="0 0 240 160" xmlns="http://www.w3.org/2000/svg">
  <rect width="240" height="160" fill="#0f172a"/>
  <rect x="0" y="0" width="240" height="28" fill="#1e293b"/>
  <circle cx="16" cy="14" r="5" fill="#60a5fa"/>
  <rect x="30" y="10" width="60" height="8" rx="4" fill="#f1f5f9" opacity="0.85"/>
  <rect x="16" y="44" width="100" height="60" rx="8" fill="#1e293b" stroke="#334155"/>
  <rect x="128" y="44" width="96" height="60" rx="8" fill="#1e293b" stroke="#334155"/>
  <rect x="28" y="56" width="76" height="8" rx="4" fill="#f1f5f9" opacity="0.85"/>
  <rect x="28" y="70" width="50" height="6" rx="3" fill="#94a3b8"/>
  <rect x="28" y="82" width="40" height="14" rx="4" fill="#4ade80"/>
  <rect x="140" y="56" width="72" height="8" rx="4" fill="#f1f5f9" opacity="0.85"/>
  <rect x="140" y="70" width="50" height="6" rx="3" fill="#94a3b8"/>
  <rect x="140" y="82" width="40" height="14" rx="4" fill="#60a5fa"/>
  <rect x="16" y="116" width="208" height="28" rx="6" fill="#1e293b" stroke="#334155"/>
  <rect x="28" y="126" width="90" height="8" rx="4" fill="#f1f5f9" opacity="0.7"/>
</svg>
